ply
format ascii 1.0
comment Created by Blender 2.69 (sub 0) - www.blender.org, source file: 'Hexagon.blend'
element vertex 7
property float x
property float y
property float z
property float nx
property float ny
property float nz
property float s
property float t
element face 6
property list uchar uint vertex_indices
end_header
0.500000 -0.866025 0.000000 -0.000000 -0.000000 -1.000000 0.501164 0.998393
0.000000 0.000000 0.000000 -0.000000 -0.000000 -1.000000 0.501164 0.498486
1.000000 0.000000 0.000000 -0.000000 -0.000000 -1.000000 0.934096 0.748439
-0.500000 -0.866025 0.000000 0.000000 0.000000 -1.000000 0.068232 0.748439
-1.000000 0.000000 0.000000 -0.000000 -0.000000 -1.000000 0.068232 0.248532
-0.500000 0.866025 0.000000 0.000000 0.000000 -1.000000 0.501164 -0.001421
0.500000 0.866025 0.000000 0.000000 0.000000 -1.000000 0.934096 0.248532
3 0 1 2
3 1 0 3
3 3 4 1
3 5 1 4
3 5 6 1
3 6 2 1
